{
  "accessors": [
    {
      "bufferView": 2,
      "componentType": 5126,
      "count": 367,
      "max": [
        0.7713000178337097,
        0.1242000013589859,
        0.09430000185966492
      ],
      "min": [
        0.5353000164031982,
        -0.10729999840259552,
        -0.08709999918937683
      ],
      "type": "VEC3"
    },
    {
      "bufferView": 2,
      "byteOffset": 4404,
      "componentType": 5126,
      "count": 367,
      "max": [
        0.9752688407897949,
        0.9997974038124084,
        0.9959200620651245
      ],
      "min": [
        -0.9984188675880432,
        -0.9391322731971741,
        -0.9936589002609253
      ],
      "type": "VEC3"
    },
    {
      "bufferView": 1,
      "componentType": 5126,
      "count": 367,
      "max": [
        0.9957000017166138,
        0.9948999881744385
      ],
      "min": [
        0.008100000210106373,
        0.05590000003576279
      ],
      "type": "VEC2"
    },
    {
      "bufferView": 0,
      "componentType": 5125,
      "count": 2019,
      "type": "SCALAR"
    },
    {
      "bufferView": 2,
      "byteOffset": 8808,
      "componentType": 5126,
      "count": 599,
      "max": [
        0.8032000064849854,
        0.09679999947547913,
        0.08179999887943268
      ],
      "min": [
        0.6980000138282776,
        -0.11500000208616257,
        -0.07190000265836716
      ],
      "type": "VEC3"
    },
    {
      "bufferView": 2,
      "byteOffset": 15996,
      "componentType": 5126,
      "count": 599,
      "max": [
        0.9986469149589539,
        0.9920658469200134,
        0.9990217089653015
      ],
      "min": [
        -0.5878171920776367,
        -0.9589346051216125,
        -0.994907557964325
      ],
      "type": "VEC3"
    },
    {
      "bufferView": 1,
      "byteOffset": 2936,
      "componentType": 5126,
      "count": 599,
      "max": [
        0.8510000109672546,
        0.9944999814033508
      ],
      "min": [
        0.024000000208616257,
        0.014000000432133675
      ],
      "type": "VEC2"
    },
    {
      "bufferView": 0,
      "byteOffset": 8076,
      "componentType": 5125,
      "count": 1854,
      "type": "SCALAR"
    },
    {
      "bufferView": 2,
      "byteOffset": 23184,
      "componentType": 5126,
      "count": 416,
      "max": [
        0.6297000050544739,
        0.15199999511241913,
        0.28369998931884766
      ],
      "min": [
        -1.0805000066757202,
        -0.1518000066280365,
        -0.27639999985694885
      ],
      "type": "VEC3"
    },
    {
      "bufferView": 2,
      "byteOffset": 28176,
      "componentType": 5126,
      "count": 416,
      "max": [
        0.9986096620559692,
        0.9612007141113281,
        0.9962170124053955
      ],
      "min": [
        -0.9998655319213867,
        -0.9977849125862122,
        -0.9962170124053955
      ],
      "type": "VEC3"
    },
    {
      "bufferView": 1,
      "byteOffset": 7728,
      "componentType": 5126,
      "count": 416,
      "max": [
        0.9911999702453613,
        0.9750999808311462
      ],
      "min": [
        0.018200000748038292,
        0.016100000590085983
      ],
      "type": "VEC2"
    },
    {
      "bufferView": 0,
      "byteOffset": 15492,
      "componentType": 5125,
      "count": 1518,
      "type": "SCALAR"
    },
    {
      "bufferView": 2,
      "byteOffset": 33168,
      "componentType": 5126,
      "count": 1320,
      "max": [
        0.586899995803833,
        0.1843000054359436,
        0.5133000016212463
      ],
      "min": [
        -0.2151000052690506,
        -0.23090000450611115,
        -0.5066999793052673
      ],
      "type": "VEC3"
    },
    {
      "bufferView": 2,
      "byteOffset": 49008,
      "componentType": 5126,
      "count": 1320,
      "max": [
        0.9939509630203247,
        0.9998155236244202,
        0.9980764389038086
      ],
      "min": [
        -0.9993809461593628,
        -0.9997554421424866,
        -0.9987357258796692
      ],
      "type": "VEC3"
    },
    {
      "bufferView": 1,
      "byteOffset": 11056,
      "componentType": 5126,
      "count": 1320,
      "max": [
        0.9972000122070313,
        1.003600001335144
      ],
      "min": [
        0.00570000009611249,
        0.0012000000569969416
      ],
      "type": "VEC2"
    },
    {
      "bufferView": 0,
      "byteOffset": 21564,
      "componentType": 5125,
      "count": 5676,
      "type": "SCALAR"
    },
    {
      "bufferView": 2,
      "byteOffset": 64848,
      "componentType": 5126,
      "count": 715,
      "max": [
        0.5896999835968018,
        0.11800000071525574,
        0.5182999968528748
      ],
      "min": [
        -1.0676000118255615,
        -0.13760000467300415,
        -0.5088000297546387
      ],
      "type": "VEC3"
    },
    {
      "bufferView": 2,
      "byteOffset": 73428,
      "componentType": 5126,
      "count": 715,
      "max": [
        0.9420791268348694,
        0.9987581968307495,
        0.9966011643409729
      ],
      "min": [
        -0.9897547960281372,
        -0.989170491695404,
        -0.9966011643409729
      ],
      "type": "VEC3"
    },
    {
      "bufferView": 1,
      "byteOffset": 21616,
      "componentType": 5126,
      "count": 715,
      "max": [
        0.9936000108718872,
        0.9872000217437744
      ],
      "min": [
        0.01769999973475933,
        0.00989999994635582
      ],
      "type": "VEC2"
    },
    {
      "bufferView": 0,
      "byteOffset": 44268,
      "componentType": 5125,
      "count": 2895,
      "type": "SCALAR"
    },
    {
      "bufferView": 2,
      "byteOffset": 82008,
      "componentType": 5126,
      "count": 1217,
      "max": [
        0.042500000447034836,
        0.1437000036239624,
        0.3027999997138977
      ],
      "min": [
        -0.9251000285148621,
        -0.17110000550746918,
        -0.28270000219345093
      ],
      "type": "VEC3"
    },
    {
      "bufferView": 2,
      "byteOffset": 96612,
      "componentType": 5126,
      "count": 1217,
      "max": [
        0.9969297051429749,
        0.9978878498077393,
        0.9998549222946167
      ],
      "min": [
        -0.9911693930625916,
        -0.9996255040168762,
        -0.9997438788414001
      ],
      "type": "VEC3"
    },
    {
      "bufferView": 1,
      "byteOffset": 27336,
      "componentType": 5126,
      "count": 1217,
      "max": [
        0.9918000102043152,
        0.9984999895095825
      ],
      "min": [
        0.006899999920278788,
        0.007600000128149986
      ],
      "type": "VEC2"
    },
    {
      "bufferView": 0,
      "byteOffset": 55848,
      "componentType": 5125,
      "count": 3501,
      "type": "SCALAR"
    }
  ],
  "asset": {
    "extras": {
      "author": "CRIMIO (https://sketchfab.com/CRIMIO)",
      "license": "CC-BY-4.0 (http://creativecommons.org/licenses/by/4.0/)",
      "source": "https://sketchfab.com/3d-models/trap-rap-ff-fa46b58fcad24c1cbcd49005fa6ae392",
      "title": "TRAP RAP FF"
    },
    "generator": "Sketchfab-12.66.0",
    "version": "2.0"
  },
  "bufferViews": [
    {
      "buffer": 0,
      "byteLength": 69852,
      "name": "floatBufferViews",
      "target": 34963
    },
    {
      "buffer": 0,
      "byteLength": 37072,
      "byteOffset": 69852,
      "byteStride": 8,
      "name": "floatBufferViews",
      "target": 34962
    },
    {
      "buffer": 0,
      "byteLength": 111216,
      "byteOffset": 106924,
      "byteStride": 12,
      "name": "floatBufferViews",
      "target": 34962
    }
  ],
  "buffers": [
    {
      "byteLength": 218140,
      "uri": "scene.bin"
    }
  ],
  "images": [
    {
      "uri": "textures/Material__35_baseColor.png"
    },
    {
      "uri": "textures/Material__36_baseColor.png"
    },
    {
      "uri": "textures/Material__37_baseColor.png"
    },
    {
      "uri": "textures/Material__38_baseColor.png"
    },
    {
      "uri": "textures/Material__39_baseColor.png"
    },
    {
      "uri": "textures/Material__40_baseColor.png"
    }
  ],
  "materials": [
    {
      "doubleSided": true,
      "name": "Material__35",
      "pbrMetallicRoughness": {
        "baseColorTexture": {
          "index": 0
        },
        "metallicFactor": 0.0,
        "roughnessFactor": 0.6
      }
    },
    {
      "doubleSided": true,
      "name": "Material__36",
      "pbrMetallicRoughness": {
        "baseColorTexture": {
          "index": 1
        },
        "metallicFactor": 0.0,
        "roughnessFactor": 0.6
      }
    },
    {
      "doubleSided": true,
      "name": "Material__37",
      "pbrMetallicRoughness": {
        "baseColorTexture": {
          "index": 2
        },
        "metallicFactor": 0.0,
        "roughnessFactor": 0.6
      }
    },
    {
      "doubleSided": true,
      "name": "Material__38",
      "pbrMetallicRoughness": {
        "baseColorTexture": {
          "index": 3
        },
        "metallicFactor": 0.0,
        "roughnessFactor": 0.6
      }
    },
    {
      "doubleSided": true,
      "name": "Material__39",
      "pbrMetallicRoughness": {
        "baseColorTexture": {
          "index": 4
        },
        "metallicFactor": 0.0,
        "roughnessFactor": 0.6
      }
    },
    {
      "doubleSided": true,
      "name": "Material__40",
      "pbrMetallicRoughness": {
        "baseColorTexture": {
          "index": 5
        },
        "metallicFactor": 0.0,
        "roughnessFactor": 0.6
      }
    }
  ],
  "meshes": [
    {
      "name": "Object_0",
      "primitives": [
        {
          "attributes": {
            "NORMAL": 1,
            "POSITION": 0,
            "TEXCOORD_0": 2
          },
          "indices": 3,
          "material": 0,
          "mode": 4
        }
      ]
    },
    {
      "name": "Object_1",
      "primitives": [
        {
          "attributes": {
            "NORMAL": 5,
            "POSITION": 4,
            "TEXCOORD_0": 6
          },
          "indices": 7,
          "material": 1,
          "mode": 4
        }
      ]
    },
    {
      "name": "Object_2",
      "primitives": [
        {
          "attributes": {
            "NORMAL": 9,
            "POSITION": 8,
            "TEXCOORD_0": 10
          },
          "indices": 11,
          "material": 2,
          "mode": 4
        }
      ]
    },
    {
      "name": "Object_3",
      "primitives": [
        {
          "attributes": {
            "NORMAL": 13,
            "POSITION": 12,
            "TEXCOORD_0": 14
          },
          "indices": 15,
          "material": 3,
          "mode": 4
        }
      ]
    },
    {
      "name": "Object_4",
      "primitives": [
        {
          "attributes": {
            "NORMAL": 17,
            "POSITION": 16,
            "TEXCOORD_0": 18
          },
          "indices": 19,
          "material": 4,
          "mode": 4
        }
      ]
    },
    {
      "name": "Object_5",
      "primitives": [
        {
          "attributes": {
            "NORMAL": 21,
            "POSITION": 20,
            "TEXCOORD_0": 22
          },
          "indices": 23,
          "material": 5,
          "mode": 4
        }
      ]
    }
  ],
  "nodes": [
    {
      "children": [
        1
      ],
      "matrix": [
        -2.220446049250313e-16,
        1.0,
        2.229119666630197e-16,
        0.0,
        0.00538610341027379,
        -2.211740271088213e-16,
        0.9999855160713196,
        0.0,
        0.9999855160713196,
        3.884890648416396e-16,
        -0.00538610341027379,
        0.0,
        -0.14327500760555267,
        0.14340057969093323,
        0.04662644118070606,
        1.0
      ],
      "name": "Sketchfab_model"
    },
    {
      "children": [
        2,
        3,
        4,
        5,
        6,
        7
      ],
      "name": "male_hair_cos_traphiphopblue.obj.cleaner.materialmerger.gles"
    },
    {
      "mesh": 0,
      "name": "Object_2"
    },
    {
      "mesh": 1,
      "name": "Object_3"
    },
    {
      "mesh": 2,
      "name": "Object_4"
    },
    {
      "mesh": 3,
      "name": "Object_5"
    },
    {
      "mesh": 4,
      "name": "Object_6"
    },
    {
      "mesh": 5,
      "name": "Object_7"
    }
  ],
  "samplers": [
    {
      "magFilter": 9729,
      "minFilter": 9987,
      "wrapS": 10497,
      "wrapT": 10497
    }
  ],
  "scene": 0,
  "scenes": [
    {
      "name": "Sketchfab_Scene",
      "nodes": [
        0
      ]
    }
  ],
  "textures": [
    {
      "sampler": 0,
      "source": 0
    },
    {
      "sampler": 0,
      "source": 1
    },
    {
      "sampler": 0,
      "source": 2
    },
    {
      "sampler": 0,
      "source": 3
    },
    {
      "sampler": 0,
      "source": 4
    },
    {
      "sampler": 0,
      "source": 5
    }
  ]
}
